<svg width="19" height="22" viewBox="0 0 19 22" fill="none" xmlns="http://www.w3.org/2000/svg">
<path d="M9.94928 18.0944H9.0507C8.28644 18.0944 7.66113 17.4529 7.66113 16.669V4.54943C7.66113 3.76546 8.28644 3.12402 9.0507 3.12402H9.94928C10.7135 3.12402 11.3388 3.76546 11.3388 4.54943V16.669C11.3388 17.4529 10.7135 18.0944 9.94928 18.0944Z" fill="white"/>
<path d="M2.20361 10.9175V9.99569C2.20361 9.21172 2.82892 8.57028 3.59318 8.57028H15.408C16.1722 8.57028 16.7975 9.21172 16.7975 9.99569V10.9175C16.7975 11.7014 16.1722 12.3429 15.408 12.3429H3.59318C2.82892 12.3429 2.20361 11.7014 2.20361 10.9175Z" fill="white"/>
</svg>
